<svg id="Layer_1" data-name="Layer 1" xmlns="http://www.w3.org/2000/svg" viewBox="0 0 1920 1920"><defs><style>.cls-1{fill:#365a36;}.cls-2{fill:#d7e5d8;}.cls-3{fill:#d8e3db;}.cls-4{fill:#d8e4da;}.cls-5{fill:#80d181;}.cls-6{fill:#d983e2;}.cls-7{fill:#bcbcbc;}.cls-8{fill:#e59eef;}.cls-9{fill:#fff;}</style></defs><title>LOGO</title><rect class="cls-1" width="1920" height="1920"></rect><path class="cls-2" d="M441,858.8H369.62v84.5H323V733.24h46.63v84H441v-84h46.47V943.3H441Z"></path><path class="cls-2" d="M576.08,733.24h46.39L703.86,943.3H654l-15-42.17H559.68L544.52,943.3h-50Zm-.78,126.19h48.27l-23.9-68.9h-.47Z"></path><path class="cls-2" d="M713.82,733.24h72.09a59.67,59.67,0,0,1,48.44,24.68,52.32,52.32,0,0,1,10.34,26.26c.38,4.19,1.28,20-9.55,34.21a48.19,48.19,0,0,1-15.5,13.2,49.69,49.69,0,0,1,15.52,4.53A47.3,47.3,0,0,1,848.84,846a45.3,45.3,0,0,1,9.71,15.59q3.59,9.31,3.58,22,0,17.67-7.88,31.11a53.75,53.75,0,0,1-22.91,21q-15,7.56-36.84,7.56H713.82Zm47.58,84.18h14.91a17.67,17.67,0,0,0,17.57-11.53,32.78,32.78,0,0,0,2.28-12.65q0-12.9-5.67-17.43T775,771.27H761.4Zm0,87.85H783q10.19,0,16.63-3.11a20.14,20.14,0,0,0,9.47-8.91,29.86,29.86,0,0,0,3-13.92q0-12.74-7.87-18.7t-22-6H761.4Z"></path><path class="cls-2" d="M1303,813.6h0V943.3h-47.33V733.23h45.74q43.36,66.84,86.72,133.67h0q-.39-66.82-.79-133.67h46.94V943.3h-46.15Z"></path><path class="cls-2" d="M1499.46,774.94h-50.13v-41.7H1597v41.7h-50V943.3h-47.58Z"></path><path class="cls-3" d="M1173.39,733.23V943.29H1126l.72-139.24L1084.6,926.42H1038q-20.88-61.18-41.77-122.37.36,69.62.71,139.24H949.33V733.23h62L1061.45,882q25.46-74.4,50.92-148.79Z"></path><path class="cls-3" d="M1190.74,733.23h47.58V943.29h-47.58Z"></path><polygon class="cls-4" points="896.46 781.69 877.23 927.38 907.88 931.19 927.11 785.5 896.46 781.69"></polygon><path class="cls-5" d="M935.3,721.12c1.12-8.77-4.83-16.82-13.29-18h0a15.56,15.56,0,0,0-17.33,13.79q-4.56,32.34-9.13,64.7l31.56,3.87Z"></path><path class="cls-6" d="M907.88,931.18l0,.42a17.35,17.35,0,0,1-.39,1.93l-.14,0-30-3.74h-.16a16.29,16.29,0,0,1,.11-2.2l0-.18Z"></path><path class="cls-6" d="M937.54,731.8a5.19,5.19,0,0,0-5.1-1.53c-4.47,1.25-5.47,10.61-6.12,17.35-1.08,11.21-2.35,25.41-3.58,42.12a7.92,7.92,0,0,0-.14,8.72c1.29,1.87,4,3.75,5.8,3,2.38-1,2.24-5.78,2.38-11.59,0,0,.24-10,1.82-22.52,1.88-15,2.83-22.54,4.83-28.28C937.93,737.63,939.27,734,937.54,731.8Z"></path><path class="cls-4" d="M907.3,933.51l-30-3.74h-.16a42.3,42.3,0,0,0,5.73,23.08,38.66,38.66,0,0,0,3.85,5.32v0l2.12.27v0a46.88,46.88,0,0,0,5.16-4,48.25,48.25,0,0,0,7.54-8.79,50.34,50.34,0,0,0,5.94-12.11Z"></path><path class="cls-7" d="M885.49,966a1.09,1.09,0,0,0,.91,1.23,1.08,1.08,0,0,0,1.22-.91l1.17-7.85-2.12-.27Z"></path><path class="cls-8" d="M324.71,988.65c1-.18,2.42-.41,4.13-.66,0,0,1.26-.19,2.53-.35,2-.27,55.63-7.14,76.75-9.34,108.13-11.23,230.66-11.14,230.66-11.14a2408.46,2408.46,0,0,1,252.79,13.53q-33,.42-66.81.4-41.91,0-82.56-.8l34-2.39q-19.46-.48-39.15-.79-65.07-1-127.67,0,4.55.89,9.36,1.59a202.88,202.88,0,0,0,43.41,1.59c.35,0-43.72.34-62.13.8-49.23,1.23-78.11,5-115.33,8.35-34.14,3.09-83.08,6.54-144.27,7.56l53.62-8.75c.8-.13-31.48.47-48.52,2.38-12,1.35-22.23,1.23-22.55-.39C322.9,989.72,323.84,989.1,324.71,988.65Z"></path><path class="cls-9" d="M327.79,1100.31a1.73,1.73,0,0,1-1.79-1.73v-36.94a1.71,1.71,0,0,1,.49-1.22,1.66,1.66,0,0,1,1.24-.52h21a1.72,1.72,0,0,1,1.22.5,1.64,1.64,0,0,1,.52,1.24,1.59,1.59,0,0,1-.52,1.18,1.71,1.71,0,0,1-1.22.49H329.29l.23-.35v15.36l-.29-.52h16.92a1.7,1.7,0,0,1,1.21.49,1.66,1.66,0,0,1,.52,1.24,1.58,1.58,0,0,1-.52,1.18,1.71,1.71,0,0,1-1.21.5h-17l.4-.52v17.89a1.68,1.68,0,0,1-.49,1.21A1.62,1.62,0,0,1,327.79,1100.31Z"></path><path class="cls-9" d="M390.65,1100.31a1.93,1.93,0,0,1-1.41-.52,1.6,1.6,0,0,1-.55-1.21v-36.94a1.71,1.71,0,0,1,.49-1.22,1.66,1.66,0,0,1,1.24-.52H406a12.12,12.12,0,0,1,5.88,1.42,10.37,10.37,0,0,1,4.07,3.89,10.94,10.94,0,0,1,1.48,5.66,11.36,11.36,0,0,1-.93,4.65,10,10,0,0,1-2.6,3.58,11.5,11.5,0,0,1-3.75,2.22l-2-.69a9.12,9.12,0,0,1,4,1.41,8.82,8.82,0,0,1,3,3.23,10.5,10.5,0,0,1,1.18,4.88,35.28,35.28,0,0,0,.26,3.87,5.87,5.87,0,0,0,.61,2.08,3.14,3.14,0,0,0,1,1.1,1.68,1.68,0,0,1,.77,1,1.4,1.4,0,0,1-.14,1.21,1.31,1.31,0,0,1-.69.66,2.23,2.23,0,0,1-.93.2,1.66,1.66,0,0,1-.86-.23,5.62,5.62,0,0,1-1.68-1.44,8.12,8.12,0,0,1-1.35-2.89,19.89,19.89,0,0,1-.55-5.31,8.05,8.05,0,0,0-.72-3.66,6.09,6.09,0,0,0-1.85-2.22,6.52,6.52,0,0,0-2.48-1.1,12.57,12.57,0,0,0-2.57-.29H391.69l.63-.87v16.34a1.74,1.74,0,0,1-.46,1.21A1.53,1.53,0,0,1,390.65,1100.31Zm1-20.43h14.49a8.07,8.07,0,0,0,3.67-1.27,8.39,8.39,0,0,0,2.79-3.09,9.28,9.28,0,0,0,1.1-4.59,7.29,7.29,0,0,0-2.22-5.45,7.94,7.94,0,0,0-5.8-2.17h-13.8l.4-.75v18.13Z"></path><path class="cls-9" d="M492.82,1080.11a23.7,23.7,0,0,1-1.41,8.34,19.73,19.73,0,0,1-4,6.58,17.93,17.93,0,0,1-6.15,4.33,20.55,20.55,0,0,1-15.56,0,18.06,18.06,0,0,1-6.11-4.33,20.15,20.15,0,0,1-4.05-6.58,24.87,24.87,0,0,1,0-16.68,20,20,0,0,1,4.05-6.58,18.06,18.06,0,0,1,6.11-4.33,20.55,20.55,0,0,1,15.56,0,17.93,17.93,0,0,1,6.15,4.33,19.63,19.63,0,0,1,4,6.58A23.7,23.7,0,0,1,492.82,1080.11Zm-3.69,0a19.33,19.33,0,0,0-2-9,15.56,15.56,0,0,0-5.51-6.09,16.11,16.11,0,0,0-16.22,0,15.14,15.14,0,0,0-5.55,6.09,21.51,21.51,0,0,0,0,18.07,15.6,15.6,0,0,0,21.77,6.09,15.42,15.42,0,0,0,5.51-6.09A19.32,19.32,0,0,0,489.13,1080.11Z"></path><path class="cls-9" d="M532.77,1059.9a1.93,1.93,0,0,1,.84.21,1.87,1.87,0,0,1,.72.55l15.93,23.89-1.56,0,16-23.84a1.62,1.62,0,0,1,1.56-.76,1.59,1.59,0,0,1,1.18.5,1.66,1.66,0,0,1,.49,1.24v36.94a1.62,1.62,0,0,1-.54,1.21,1.82,1.82,0,0,1-1.3.52,1.7,1.7,0,0,1-1.27-.52,1.64,1.64,0,0,1-.52-1.21v-33.42l1,.11-14.61,22.11a1.22,1.22,0,0,1-.55.55,1.6,1.6,0,0,1-1.55,0,1.55,1.55,0,0,1-.61-.55L533.35,1065l1.09-.75v34.29a1.68,1.68,0,0,1-.49,1.21,1.61,1.61,0,0,1-1.24.52,1.53,1.53,0,0,1-1.21-.52,1.74,1.74,0,0,1-.46-1.21v-36.94a1.74,1.74,0,0,1,.49-1.19A1.62,1.62,0,0,1,532.77,1059.9Z"></path><path class="cls-9" d="M688.56,1064l-14,34.81a2,2,0,0,1-.64.87,1.55,1.55,0,0,1-.92.29,1.66,1.66,0,0,1-1.27-.44,1.5,1.5,0,0,1-.4-1.07,1.54,1.54,0,0,1,.05-.69l15.24-37.29a1.66,1.66,0,0,1,.67-.89,1.85,1.85,0,0,1,1-.26,1.78,1.78,0,0,1,1.07.31,2.29,2.29,0,0,1,.66.84l15.18,37.12a2.09,2.09,0,0,1,.12.69,1.54,1.54,0,0,1-.52,1.24,1.85,1.85,0,0,1-1.22.44,1.69,1.69,0,0,1-1-.32,2,2,0,0,1-.66-.84l-14.37-35.1Zm-10.68,24.25,1.44-3.41h17.89l.7,3.41Z"></path><path class="cls-9" d="M744.2,1059.5a1.73,1.73,0,0,1,1.24.52,1.67,1.67,0,0,1,.55,1.27v36.83a1.93,1.93,0,0,1-.6,1.27,1.8,1.8,0,0,1-1.25.52,1.69,1.69,0,0,1-1.32-.52,1.84,1.84,0,0,1-.46-1.27v-36.83a1.75,1.75,0,0,1,.51-1.27A1.79,1.79,0,0,1,744.2,1059.5Zm-.29,18.07h27.42l-.05,3.4h-27.6Zm27.37-18.07a1.67,1.67,0,0,1,1.29.52,1.77,1.77,0,0,1,.49,1.27v36.83a2,2,0,0,1-.54,1.27,1.81,1.81,0,0,1-3.09-1.27v-36.83A1.67,1.67,0,0,1,770,1060,1.79,1.79,0,0,1,771.28,1059.5Z"></path><path class="cls-9" d="M827.44,1064l-14,34.81a1.88,1.88,0,0,1-.63.87,1.58,1.58,0,0,1-.93.29,1.63,1.63,0,0,1-1.26-.44,1.5,1.5,0,0,1-.41-1.07,1.43,1.43,0,0,1,.06-.69l15.24-37.29a1.61,1.61,0,0,1,.66-.89,1.88,1.88,0,0,1,1-.26,1.78,1.78,0,0,1,1.07.31,2.1,2.1,0,0,1,.66.84l15.19,37.12a2.37,2.37,0,0,1,.11.69,1.51,1.51,0,0,1-.52,1.24,1.82,1.82,0,0,1-1.21.44,1.67,1.67,0,0,1-1-.32,2.07,2.07,0,0,1-.67-.84l-14.37-35.1Zm-10.68,24.25,1.44-3.41h17.9l.69,3.41Z"></path><path class="cls-9" d="M883,1059.5a2.06,2.06,0,0,1,.84.2,2.09,2.09,0,0,1,.72.55l15.93,23.9-1.56-.06,16-23.84a1.61,1.61,0,0,1,1.56-.75,1.62,1.62,0,0,1,1.19.49,1.71,1.71,0,0,1,.49,1.24v37a1.65,1.65,0,0,1-.55,1.21,1.86,1.86,0,0,1-1.3.52,1.76,1.76,0,0,1-1.27-.52,1.65,1.65,0,0,1-.52-1.21v-33.43l1,.12L900.92,1087a1.24,1.24,0,0,1-.54.55,1.62,1.62,0,0,1-1.56,0,1.79,1.79,0,0,1-.61-.55l-14.66-22.34,1.1-.75v34.29a1.74,1.74,0,0,1-.49,1.21,1.68,1.68,0,0,1-1.25.52,1.56,1.56,0,0,1-1.21-.52,1.76,1.76,0,0,1-.46-1.21v-37a1.72,1.72,0,0,1,.49-1.18A1.58,1.58,0,0,1,883,1059.5Z"></path><path class="cls-9" d="M1022.36,1063.2a1.77,1.77,0,0,1-1.21-.47,1.48,1.48,0,0,1-.52-1.15,1.56,1.56,0,0,1,.52-1.21,1.77,1.77,0,0,1,1.21-.47h27.42a1.83,1.83,0,0,1,1.27.47,1.53,1.53,0,0,1,.52,1.21,1.44,1.44,0,0,1-.52,1.18,1.9,1.9,0,0,1-1.27.44Zm13.74,37.11a1.76,1.76,0,0,1-1.32-.52,1.64,1.64,0,0,1-.52-1.21v-36.77h3.63v36.77a1.64,1.64,0,0,1-.52,1.21A1.7,1.7,0,0,1,1036.1,1100.31Z"></path><path class="cls-9" d="M1123.85,1080.11a23.7,23.7,0,0,1-1.42,8.34,19.73,19.73,0,0,1-4,6.58,17.93,17.93,0,0,1-6.15,4.33,20.52,20.52,0,0,1-15.55,0,18,18,0,0,1-6.12-4.33,20,20,0,0,1-4-6.58,24.71,24.71,0,0,1,0-16.68,19.86,19.86,0,0,1,4-6.58,18,18,0,0,1,6.12-4.33,20.52,20.52,0,0,1,15.55,0,17.93,17.93,0,0,1,6.15,4.33,19.63,19.63,0,0,1,4,6.58A23.7,23.7,0,0,1,1123.85,1080.11Zm-3.7,0a19.33,19.33,0,0,0-2-9,15.48,15.48,0,0,0-5.51-6.09,14.94,14.94,0,0,0-8.11-2.19,14.82,14.82,0,0,0-13.65,8.28,21.41,21.41,0,0,0,0,18.07,15.59,15.59,0,0,0,21.76,6.09,15.35,15.35,0,0,0,5.51-6.09A19.32,19.32,0,0,0,1120.15,1080.11Z"></path><path class="cls-9" d="M1236.57,1064l-14,34.81a1.88,1.88,0,0,1-.63.87,1.58,1.58,0,0,1-.93.29,1.67,1.67,0,0,1-1.27-.44,1.5,1.5,0,0,1-.4-1.07,1.43,1.43,0,0,1,.06-.69l15.24-37.29a1.61,1.61,0,0,1,.66-.89,1.85,1.85,0,0,1,1-.26,1.78,1.78,0,0,1,1.07.31,2.1,2.1,0,0,1,.66.84l15.18,37.12a2.09,2.09,0,0,1,.12.69,1.54,1.54,0,0,1-.52,1.24,1.84,1.84,0,0,1-1.21.44,1.65,1.65,0,0,1-1-.32,2.07,2.07,0,0,1-.67-.84l-14.37-35.1Zm-10.68,24.25,1.44-3.41h17.9l.69,3.41Z"></path><path class="cls-9" d="M1319.92,1059.5a1.55,1.55,0,0,1,1.19.46,1.63,1.63,0,0,1,.43,1.16v36.94a1.72,1.72,0,0,1-.55,1.36,1.85,1.85,0,0,1-1.24.49,2.08,2.08,0,0,1-.78-.15,1.41,1.41,0,0,1-.61-.43l-25.74-34.63,1-.58v34.23a1.5,1.5,0,0,1-.46,1.1,1.6,1.6,0,0,1-1.16.46,1.52,1.52,0,0,1-1.61-1.56v-37.12a1.63,1.63,0,0,1,1.67-1.73,2.4,2.4,0,0,1,.75.14,1.27,1.27,0,0,1,.64.5l25.45,34.28-.57,1v-34.34a1.58,1.58,0,0,1,.46-1.16A1.55,1.55,0,0,1,1319.92,1059.5Z"></path><path class="cls-9" d="M1375.92,1064l-14,34.81a2,2,0,0,1-.64.87,1.55,1.55,0,0,1-.92.29,1.66,1.66,0,0,1-1.27-.44,1.5,1.5,0,0,1-.4-1.07,1.54,1.54,0,0,1,0-.69l15.24-37.29a1.66,1.66,0,0,1,.67-.89,1.85,1.85,0,0,1,1-.26,1.73,1.73,0,0,1,1.06.31,2.21,2.21,0,0,1,.67.84l15.18,37.12a2.09,2.09,0,0,1,.12.69,1.54,1.54,0,0,1-.52,1.24,1.85,1.85,0,0,1-1.22.44,1.69,1.69,0,0,1-1-.32,2.05,2.05,0,0,1-.66-.84l-14.37-35.1Zm-10.68,24.25,1.44-3.41h17.89l.7,3.41Z"></path><path class="cls-9" d="M1459.27,1059.5a1.52,1.52,0,0,1,1.18.46,1.64,1.64,0,0,1,.44,1.16v36.94a1.75,1.75,0,0,1-.55,1.36,1.85,1.85,0,0,1-1.24.49,2.08,2.08,0,0,1-.78-.15,1.41,1.41,0,0,1-.61-.43L1432,1064.7l1-.58v34.23a1.54,1.54,0,0,1-.46,1.1,1.62,1.62,0,0,1-1.16.46,1.52,1.52,0,0,1-1.61-1.56v-37.12a1.63,1.63,0,0,1,1.67-1.73,2.4,2.4,0,0,1,.75.14,1.2,1.2,0,0,1,.63.5l25.46,34.28-.58,1v-34.34a1.58,1.58,0,0,1,.47-1.16A1.54,1.54,0,0,1,1459.27,1059.5Z"></path><path class="cls-9" d="M1500,1062.79a1.76,1.76,0,0,1-1.21-.46,1.5,1.5,0,0,1-.52-1.16,1.56,1.56,0,0,1,.52-1.21,1.76,1.76,0,0,1,1.21-.46h27.42a1.82,1.82,0,0,1,1.27.46,1.53,1.53,0,0,1,.52,1.21,1.46,1.46,0,0,1-.52,1.19,1.9,1.9,0,0,1-1.27.43Zm13.74,37.12a1.83,1.83,0,0,1-1.33-.52,1.69,1.69,0,0,1-.52-1.21v-36.77h3.64v36.77a1.65,1.65,0,0,1-.52,1.21A1.74,1.74,0,0,1,1513.76,1099.91Z"></path><path class="cls-9" d="M1577.26,1064l-14,34.81a1.88,1.88,0,0,1-.63.87,1.58,1.58,0,0,1-.93.29,1.67,1.67,0,0,1-1.27-.44,1.5,1.5,0,0,1-.4-1.07,1.43,1.43,0,0,1,.06-.69l15.24-37.29a1.61,1.61,0,0,1,.66-.89,1.88,1.88,0,0,1,1-.26,1.78,1.78,0,0,1,1.07.31,2.1,2.1,0,0,1,.66.84l15.18,37.12a2.09,2.09,0,0,1,.12.69,1.51,1.51,0,0,1-.52,1.24,1.84,1.84,0,0,1-1.21.44,1.67,1.67,0,0,1-1-.32,2.07,2.07,0,0,1-.67-.84l-14.37-35.1Zm-10.68,24.25,1.44-3.41h17.9l.69,3.41Z"></path></svg>